<svg xmlns="http://www.w3.org/2000/svg" width="32" height="32" viewBox="0 0 24 24"><!-- Icon from Material Line Icons by Vjacheslav Trushkin - https://github.com/cyberalien/line-md/blob/master/license.txt --><mask id="lineMdCookieCheck0"><g fill="none" stroke="#fff" stroke-linecap="round" stroke-linejoin="round" stroke-width="2"><path stroke-dasharray="56" stroke-dashoffset="56" d="M12 4c-4.42 0 -8 3.58 -8 8c0 4.42 3.58 8 8 8c4.42 0 8 -3.58 8 -8v-1h-2c-0.55 0 -1 -0.45 -1 -1v-1h-2c-0.55 0 -1 -0.45 -1 -1v-1h-1c-0.55 0 -1 -0.45 -1 -1Z"><animate fill="freeze" attributeName="stroke-dashoffset" dur="0.6s" values="56;0"/></path><g fill="#fff" fill-opacity="0" stroke="none"><circle cx="9.5" cy="7.5" r="1.5"><animate fill="freeze" attributeName="fill-opacity" begin="0.7s" dur="0.2s" values="0;1"/></circle><circle cx="11" cy="17.5" r="1.5"><animate fill="freeze" attributeName="fill-opacity" begin="0.8s" dur="0.2s" values="0;1"/></circle><circle cx="6.5" cy="11.5" r="1.5"><animate fill="freeze" attributeName="fill-opacity" begin="0.9s" dur="0.2s" values="0;1"/></circle><circle cx="16.5" cy="14.5" r="1.5"><animate fill="freeze" attributeName="fill-opacity" begin="1s" dur="0.2s" values="0;1"/></circle><circle cx="11.5" cy="12.5" r="1.5"><animate fill="freeze" attributeName="fill-opacity" begin="1.1s" dur="0.2s" values="0;1"/></circle></g><path fill="#000" fill-opacity="0" stroke="none" d="M19 13c3.31 0 6 2.69 6 6c0 3.31 -2.69 6 -6 6c-3.31 0 -6 -2.69 -6 -6c0 -3.31 2.69 -6 6 -6Z"><set fill="freeze" attributeName="fill-opacity" begin="1.4s" to="1"/></path><path stroke-dasharray="10" stroke-dashoffset="10" d="M16 19l1.75 1.75l3.75 -3.75"><animate fill="freeze" attributeName="stroke-dashoffset" begin="1.4s" dur="0.2s" values="10;0"/></path></g></mask><rect width="24" height="24" fill="currentColor" mask="url(#lineMdCookieCheck0)"/></svg>