<svg xmlns="http://www.w3.org/2000/svg" width="32" height="32" viewBox="0 0 24 24"><!-- Icon from Material Symbols Light by Google - https://github.com/google/material-design-icons/blob/master/LICENSE --><path fill="currentColor" d="m9.4 15.308l2.6-2.6l2.6 2.6l.708-.708l-2.6-2.6l2.6-2.6l-.708-.708l-2.6 2.6l-2.6-2.6l-.708.708l2.6 2.6l-2.6 2.6zM4.616 19q-.691 0-1.153-.462T3 17.384V6.616q0-.691.463-1.153T4.615 5h14.77q.69 0 1.152.463T21 6.616v10.769q0 .69-.463 1.153T19.385 19zm0-1h14.769q.23 0 .423-.192t.192-.424V6.616q0-.231-.192-.424T19.385 6H4.615q-.23 0-.423.192T4 6.616v10.769q0 .23.192.423t.423.192M4 18V6z"/></svg>