<svg xmlns="http://www.w3.org/2000/svg" width="32" height="32" viewBox="0 0 20 20"><!-- Icon from uiw icons by liwen0526 - https://github.com/uiwjs/icons/blob/master/LICENSE --><path fill="currentColor" d="m12.89 0l4.61 5.192V19.09a.896.896 0 0 1-.882.909H3.382a.896.896 0 0 1-.882-.91V.91c0-.503.395-.91.882-.91zm-.584 1.364H3.824v17.272h12.352V6.342h-2.829c-.705.028-1.25-.086-1.64-.394c-.454-.358-.62-.968-.598-1.781v-2.8h1.201zm-3.29 13.615c.389 0 .705.313.705.7s-.316.699-.706.699a.703.703 0 0 1-.706-.7c0-.386.316-.699.706-.699m2.167-6.497c.577.578.773 1.277.699 1.998c-.055.54-.404 1.071-.887 1.57l-.049.05l-.105.106c-.077.077-.17.168-.307.3c-.145.14-.245.238-.322.315l-.1.1l-.082.086c-.204.218-.267.31-.301.411s-.08.321-.127.641a.665.665 0 0 1-.754.571a.68.68 0 0 1-.554-.777c.059-.396.117-.683.184-.882c.11-.326.274-.562.599-.91c.124-.133.242-.249.547-.545c.23-.223.334-.325.433-.428c.283-.292.495-.615.509-.751a1.01 1.01 0 0 0-.306-.877c-.345-.346-.768-.508-1.195-.475c-.49.038-.878.22-1.196.58a2.1 2.1 0 0 0-.472.941a.66.66 0 0 1-.795.508a.683.683 0 0 1-.493-.82a3.5 3.5 0 0 1 .782-1.548c.554-.627 1.26-.957 2.074-1.02c.81-.064 1.604.241 2.218.856m1.201-7.032l.048.059v2.676c-.012.439.047.656.08.68c.095.076.358.131.81.114h2.193l.375.424l.286.319z"/></svg>